<svg width="1" height="1" viewBox="0 0 1 1" fill="none" xmlns="http://www.w3.org/2000/svg">
<path d="M0.323888 0C0.502593 0 0.647217 0.145192 0.647217 0.323898C0.647217 0.52732 0.500106 0.600369 0.446699 0.679082C0.39329 0.757796 0.333328 0.844381 0.323894 1C0.314445 0.84482 0.261996 0.769257 0.20394 0.679082C0.145886 0.588907 -3.41757e-06 0.502603 -3.41757e-06 0.323898C-3.41757e-06 0.145192 0.145189 0 0.323894 0H0.323888Z" fill="#FEBA29"/>
<path opacity="0.6" d="M0.169971 0.339941C0.169971 0.422782 0.23713 0.489941 0.319971 0.489941C0.402812 0.489941 0.469971 0.422782 0.469971 0.339941C0.469971 0.2571 0.402812 0.189941 0.319971 0.189941C0.23713 0.189941 0.169971 0.2571 0.169971 0.339941Z" fill="#D78920"/>
</svg>