<svg width="2" height="2" viewBox="0 0 2 2" fill="none" xmlns="http://www.w3.org/2000/svg">
<path d="M1.00001 0.09375C0.824859 0.0948571 0.657318 0.165498 0.534247 0.290134C0.411176 0.414769 0.342657 0.583189 0.343763 0.758344C0.343763 1.33228 1.00001 1.90625 1.00001 1.90625C1.00001 1.90625 1.65626 1.33228 1.65626 0.758344C1.65737 0.583189 1.58885 0.414769 1.46578 0.290134C1.34271 0.165498 1.17517 0.0948571 1.00001 0.09375V0.09375ZM1.00001 1.3125C0.888761 1.3125 0.780008 1.27951 0.687505 1.2177C0.595002 1.15589 0.522905 1.06804 0.480331 0.965259C0.437757 0.862476 0.426617 0.749376 0.448321 0.640262C0.470026 0.531147 0.523599 0.430919 0.602266 0.352252C0.680933 0.273585 0.781161 0.220012 0.890275 0.198308C0.999389 0.176604 1.11249 0.187743 1.21527 0.230318C1.31806 0.272892 1.40591 0.344989 1.46772 0.437492C1.52952 0.529994 1.56251 0.638748 1.56251 0.75C1.56234 0.899131 1.50302 1.0421 1.39757 1.14756C1.29212 1.25301 1.14914 1.31233 1.00001 1.3125V1.3125Z" fill="#148E49"/>
<path d="M0.765625 0.875C0.791513 0.875 0.8125 0.854013 0.8125 0.828125C0.8125 0.802237 0.791513 0.78125 0.765625 0.78125C0.739737 0.78125 0.71875 0.802237 0.71875 0.828125C0.71875 0.854013 0.739737 0.875 0.765625 0.875Z" fill="#148E49"/>
<path d="M1.23438 0.875C1.26026 0.875 1.28125 0.854013 1.28125 0.828125C1.28125 0.802237 1.26026 0.78125 1.23438 0.78125C1.20849 0.78125 1.1875 0.802237 1.1875 0.828125C1.1875 0.854013 1.20849 0.875 1.23438 0.875Z" fill="#148E49"/>
<path d="M1.20627 0.581438C1.20386 0.575822 1.19986 0.571036 1.19476 0.56767C1.18966 0.564304 1.18369 0.562507 1.17758 0.5625H0.822456C0.816341 0.562501 0.810361 0.564295 0.805256 0.567661C0.800151 0.571028 0.796146 0.575817 0.793737 0.581438L0.734924 0.71875H1.26511L1.20627 0.581438Z" fill="#148E49"/>
<path d="M1 0.25C0.901109 0.25 0.80444 0.279324 0.722215 0.334265C0.63999 0.389206 0.575904 0.467295 0.53806 0.558658C0.500217 0.650021 0.490315 0.750555 0.509608 0.847545C0.5289 0.944536 0.576521 1.03363 0.646447 1.10355C0.716373 1.17348 0.805464 1.2211 0.902455 1.24039C0.999445 1.25969 1.09998 1.24978 1.19134 1.21194C1.2827 1.1741 1.36079 1.11001 1.41573 1.02779C1.47068 0.94556 1.5 0.848891 1.5 0.75C1.49984 0.61744 1.44711 0.490354 1.35338 0.39662C1.25965 0.302886 1.13256 0.250157 1 0.25V0.25ZM1.34122 0.737688V0.737906C1.34258 0.741311 1.34332 0.74493 1.34341 0.748594C1.34341 0.749031 1.34366 0.749406 1.34366 0.749875V0.906125C1.34366 0.914413 1.34036 0.922362 1.3345 0.928222C1.32864 0.934083 1.32069 0.937375 1.31241 0.937375V0.999875H1.1875V0.9375H0.8125V1H0.6875V0.9375C0.679212 0.9375 0.671264 0.934208 0.665403 0.928347C0.659543 0.922487 0.65625 0.914538 0.65625 0.90625V0.75C0.65625 0.749531 0.6565 0.749156 0.6565 0.748719C0.656591 0.745055 0.657331 0.741436 0.658688 0.738031V0.737813L0.66875 0.714344L0.583781 0.686031L0.603531 0.626656L0.693438 0.656625L0.736219 0.556875C0.743441 0.539993 0.755462 0.525604 0.770789 0.515493C0.786117 0.505382 0.804076 0.499995 0.822438 0.5H0.84375L0.875 0.40625H1.125L1.15625 0.5H1.17756C1.1959 0.500008 1.21384 0.505395 1.22914 0.515493C1.24445 0.525591 1.25646 0.539957 1.26369 0.556813L1.30647 0.656563L1.39637 0.626594L1.41613 0.685969L1.33116 0.714281L1.34122 0.737688Z" fill="#148E49"/>
</svg>